# xmcd
#
# Track frame offsets:
#	150
#	20273
#	33010
#	53646
#	74463
#	86577
#	115994
#	130394
#	145170
#	161021
#	180544
#	196527
#
# Disc length: 2927 seconds
#
# Revision: 0
# Processed by: cddbd v1.4PL0 Copyright (c) Steve Scherf et al.
# Submitted via: dBpowerAMP V4.0
#
DISCID=980b6d0c
DTITLE=Pripps n´Who - Bla`
DYEAR=1997
DGENRE=Blues
TTITLE0=Sunrise
TTITLE1=You will know me
TTITLE2=Undone
TTITLE3=Fill the Empty Pages
TTITLE4=Twist and shout
TTITLE5=Blues
TTITLE6=The way i go
TTITLE7=Could it be Love
TTITLE8=Faith
TTITLE9=Train of thoughts
TTITLE10=Miracle of live
TTITLE11=Leaving for my World
EXTD=
EXTT0=
EXTT1=
EXTT2=
EXTT3=
EXTT4=
EXTT5=
EXTT6=
EXTT7=
EXTT8=
EXTT9=
EXTT10=
EXTT11=
PLAYORDER=
